# Blender v2.79 (sub 7) OBJ File: 'TelComPole.blend'
# www.blender.org
mtllib TelComPole.mtl
o TelComPole_TelComPole.001
v -0.187500 5.500000 -0.029697
v -0.187500 4.500000 -0.029697
v -0.187500 4.500000 0.029697
v -0.187500 3.500000 0.029697
v -0.187500 3.500000 -0.029697
v -0.187500 2.500000 0.029697
v -0.187500 2.500000 -0.029697
v -0.187500 1.500000 0.029697
v -0.187500 1.500000 -0.029697
v -0.187500 0.500000 0.029697
v -0.187500 0.500000 -0.029697
v -0.187500 -0.500000 0.029697
v -0.187500 -0.500000 -0.029697
v -0.187500 5.500000 0.029697
v -0.169146 4.500000 0.086184
v -0.169146 3.500000 0.086184
v -0.169146 2.500000 0.086184
v -0.169146 1.500000 0.086184
v -0.169146 0.500000 0.086184
v -0.169146 -0.500000 0.086184
v -0.169146 5.500000 0.086184
v -0.134235 4.500000 0.134235
v -0.134235 3.500000 0.134235
v -0.134235 2.500000 0.134235
v -0.134235 1.500000 0.134235
v -0.134235 0.500000 0.134235
v -0.134235 -0.500000 0.134235
v -0.134235 5.500000 0.134235
v -0.086184 4.500000 0.169146
v -0.086184 3.500000 0.169146
v -0.086184 2.500000 0.169146
v -0.086184 1.500000 0.169146
v -0.086184 0.500000 0.169146
v -0.086184 -0.500000 0.169146
v -0.086184 5.500000 0.169146
v -0.029697 4.500000 0.187500
v -0.029697 3.500000 0.187500
v -0.029697 2.500000 0.187500
v -0.029697 1.500000 0.187500
v -0.029697 0.500000 0.187500
v -0.029697 -0.500000 0.187500
v -0.029697 5.500000 0.187500
v 0.029697 4.500000 0.187500
v 0.029697 3.500000 0.187500
v 0.029697 2.500000 0.187500
v 0.029697 1.500000 0.187500
v 0.029697 0.500000 0.187500
v 0.029697 -0.500000 0.187500
v 0.029697 5.500000 0.187500
v 0.086184 4.500000 0.169146
v 0.086184 3.500000 0.169146
v 0.086184 2.500000 0.169146
v 0.086184 1.500000 0.169146
v 0.086184 0.500000 0.169146
v 0.086184 -0.500000 0.169146
v 0.086184 5.500000 0.169146
v 0.134235 4.500000 0.134235
v 0.134235 3.500000 0.134235
v 0.134235 2.500000 0.134235
v 0.134235 1.500000 0.134235
v 0.134235 0.500000 0.134235
v 0.134235 -0.500000 0.134235
v 0.134235 5.500000 0.134235
v 0.169146 4.500000 0.086184
v 0.169146 3.500000 0.086184
v 0.169146 2.500000 0.086184
v 0.169146 1.500000 0.086184
v 0.169146 0.500000 0.086184
v 0.169146 -0.500000 0.086184
v 0.169146 5.500000 0.086184
v 0.187500 4.500000 0.029697
v 0.187500 3.500000 0.029697
v 0.187500 2.500000 0.029697
v 0.187500 1.500000 0.029697
v 0.187500 0.500000 0.029697
v 0.187500 -0.500000 0.029697
v 0.187500 5.500000 0.029697
v 0.187500 4.500000 -0.029697
v 0.187500 3.500000 -0.029697
v 0.187500 2.500000 -0.029697
v 0.187500 1.500000 -0.029697
v 0.187500 0.500000 -0.029697
v 0.187500 -0.500000 -0.029697
v 0.187500 5.500000 -0.029697
v 0.169146 4.500000 -0.086184
v 0.169146 3.500000 -0.086184
v 0.169146 2.500000 -0.086184
v 0.169146 1.500000 -0.086184
v 0.169146 0.500000 -0.086184
v 0.169146 -0.500000 -0.086184
v 0.169146 5.500000 -0.086184
v 0.134235 4.500000 -0.134235
v 0.134235 3.500000 -0.134235
v 0.134235 2.500000 -0.134235
v 0.134235 1.500000 -0.134235
v 0.134235 0.500000 -0.134235
v 0.134235 -0.500000 -0.134235
v 0.134235 5.500000 -0.134235
v 0.086184 4.500000 -0.169146
v 0.086184 3.500000 -0.169146
v 0.086184 2.500000 -0.169146
v 0.086184 1.500000 -0.169146
v 0.086184 0.500000 -0.169146
v 0.086184 -0.500000 -0.169146
v 0.086184 5.500000 -0.169146
v 0.029697 4.500000 -0.187500
v 0.029697 3.500000 -0.187500
v 0.029697 2.500000 -0.187500
v 0.029697 1.500000 -0.187500
v 0.029697 0.500000 -0.187500
v 0.029697 -0.500000 -0.187500
v 0.029697 5.500000 -0.187500
v -0.029697 4.500000 -0.187500
v -0.029697 3.500000 -0.187500
v -0.029697 2.500000 -0.187500
v -0.029697 1.500000 -0.187500
v -0.029697 0.500000 -0.187500
v -0.029697 -0.500000 -0.187500
v -0.029697 5.500000 -0.187500
v -0.086184 4.500000 -0.169146
v -0.086184 3.500000 -0.169146
v -0.086184 2.500000 -0.169146
v -0.086184 1.500000 -0.169146
v -0.086184 0.500000 -0.169146
v -0.086184 -0.500000 -0.169146
v -0.086184 5.500000 -0.169146
v -0.169146 5.500000 -0.086184
v -0.134235 5.500000 -0.134235
v -0.169146 -0.500000 -0.086184
v -0.134235 -0.500000 -0.134235
v -0.134235 4.500000 -0.134235
v -0.134235 3.500000 -0.134235
v -0.134235 2.500000 -0.134235
v -0.134235 1.500000 -0.134235
v -0.134235 0.500000 -0.134235
v -0.169146 4.500000 -0.086184
v -0.169146 3.500000 -0.086184
v -0.169146 2.500000 -0.086184
v -0.169146 1.500000 -0.086184
v -0.169146 0.500000 -0.086184
vn -1.0000 0.0000 0.0000
vn -0.9511 0.0000 0.3090
vn -0.8090 0.0000 0.5878
vn -0.5878 0.0000 0.8090
vn -0.3090 0.0000 0.9511
vn 0.0000 0.0000 1.0000
vn 0.3090 0.0000 0.9511
vn 0.5878 0.0000 0.8090
vn 0.8090 0.0000 0.5878
vn 0.9511 0.0000 0.3090
vn 1.0000 0.0000 0.0000
vn 0.9511 0.0000 -0.3090
vn 0.8090 0.0000 -0.5878
vn 0.5878 0.0000 -0.8090
vn 0.3090 0.0000 -0.9511
vn 0.0000 0.0000 -1.0000
vn -0.3090 0.0000 -0.9511
vn 0.0000 1.0000 0.0000
vn 0.0000 -1.0000 0.0000
vn -0.5878 0.0000 -0.8090
vn -0.8090 0.0000 -0.5878
vn -0.9511 0.0000 -0.3090
usemtl None
s off
f 1//1 2//1 3//1
f 4//1 3//1 2//1
f 2//1 5//1 4//1
f 6//1 4//1 5//1
f 5//1 7//1 6//1
f 8//1 6//1 7//1
f 7//1 9//1 8//1
f 10//1 8//1 9//1
f 9//1 11//1 10//1
f 12//1 10//1 11//1
f 11//1 13//1 12//1
f 3//1 14//1 1//1
f 14//2 3//2 15//2
f 16//2 15//2 3//2
f 3//2 4//2 16//2
f 17//2 16//2 4//2
f 4//2 6//2 17//2
f 18//2 17//2 6//2
f 6//2 8//2 18//2
f 19//2 18//2 8//2
f 8//2 10//2 19//2
f 20//2 19//2 10//2
f 10//2 12//2 20//2
f 15//2 21//2 14//2
f 21//3 15//3 22//3
f 23//3 22//3 15//3
f 15//3 16//3 23//3
f 24//3 23//3 16//3
f 16//3 17//3 24//3
f 25//3 24//3 17//3
f 17//3 18//3 25//3
f 26//3 25//3 18//3
f 18//3 19//3 26//3
f 27//3 26//3 19//3
f 19//3 20//3 27//3
f 22//3 28//3 21//3
f 28//4 22//4 29//4
f 30//4 29//4 22//4
f 22//4 23//4 30//4
f 31//4 30//4 23//4
f 23//4 24//4 31//4
f 32//4 31//4 24//4
f 24//4 25//4 32//4
f 33//4 32//4 25//4
f 25//4 26//4 33//4
f 34//4 33//4 26//4
f 26//4 27//4 34//4
f 29//4 35//4 28//4
f 35//5 29//5 36//5
f 37//5 36//5 29//5
f 29//5 30//5 37//5
f 38//5 37//5 30//5
f 30//5 31//5 38//5
f 39//5 38//5 31//5
f 31//5 32//5 39//5
f 40//5 39//5 32//5
f 32//5 33//5 40//5
f 41//5 40//5 33//5
f 33//5 34//5 41//5
f 36//5 42//5 35//5
f 42//6 36//6 43//6
f 44//6 43//6 36//6
f 36//6 37//6 44//6
f 45//6 44//6 37//6
f 37//6 38//6 45//6
f 46//6 45//6 38//6
f 38//6 39//6 46//6
f 47//6 46//6 39//6
f 39//6 40//6 47//6
f 48//6 47//6 40//6
f 40//6 41//6 48//6
f 43//6 49//6 42//6
f 49//7 43//7 50//7
f 51//7 50//7 43//7
f 43//7 44//7 51//7
f 52//7 51//7 44//7
f 44//7 45//7 52//7
f 53//7 52//7 45//7
f 45//7 46//7 53//7
f 54//7 53//7 46//7
f 46//7 47//7 54//7
f 55//7 54//7 47//7
f 47//7 48//7 55//7
f 50//7 56//7 49//7
f 56//8 50//8 57//8
f 58//8 57//8 50//8
f 50//8 51//8 58//8
f 59//8 58//8 51//8
f 51//8 52//8 59//8
f 60//8 59//8 52//8
f 52//8 53//8 60//8
f 61//8 60//8 53//8
f 53//8 54//8 61//8
f 62//8 61//8 54//8
f 54//8 55//8 62//8
f 57//8 63//8 56//8
f 63//9 57//9 64//9
f 65//9 64//9 57//9
f 57//9 58//9 65//9
f 66//9 65//9 58//9
f 58//9 59//9 66//9
f 67//9 66//9 59//9
f 59//9 60//9 67//9
f 68//9 67//9 60//9
f 60//9 61//9 68//9
f 69//9 68//9 61//9
f 61//9 62//9 69//9
f 64//9 70//9 63//9
f 70//10 64//10 71//10
f 72//10 71//10 64//10
f 64//10 65//10 72//10
f 73//10 72//10 65//10
f 65//10 66//10 73//10
f 74//10 73//10 66//10
f 66//10 67//10 74//10
f 75//10 74//10 67//10
f 67//10 68//10 75//10
f 76//10 75//10 68//10
f 68//10 69//10 76//10
f 71//10 77//10 70//10
f 77//11 71//11 78//11
f 79//11 78//11 71//11
f 71//11 72//11 79//11
f 80//11 79//11 72//11
f 72//11 73//11 80//11
f 81//11 80//11 73//11
f 73//11 74//11 81//11
f 82//11 81//11 74//11
f 74//11 75//11 82//11
f 83//11 82//11 75//11
f 75//11 76//11 83//11
f 78//11 84//11 77//11
f 84//12 78//12 85//12
f 86//12 85//12 78//12
f 78//12 79//12 86//12
f 87//12 86//12 79//12
f 79//12 80//12 87//12
f 88//12 87//12 80//12
f 80//12 81//12 88//12
f 89//12 88//12 81//12
f 81//12 82//12 89//12
f 90//12 89//12 82//12
f 82//12 83//12 90//12
f 85//12 91//12 84//12
f 91//13 85//13 92//13
f 93//13 92//13 85//13
f 85//13 86//13 93//13
f 94//13 93//13 86//13
f 86//13 87//13 94//13
f 95//13 94//13 87//13
f 87//13 88//13 95//13
f 96//13 95//13 88//13
f 88//13 89//13 96//13
f 97//13 96//13 89//13
f 89//13 90//13 97//13
f 92//13 98//13 91//13
f 98//14 92//14 99//14
f 100//14 99//14 92//14
f 92//14 93//14 100//14
f 101//14 100//14 93//14
f 93//14 94//14 101//14
f 102//14 101//14 94//14
f 94//14 95//14 102//14
f 103//14 102//14 95//14
f 95//14 96//14 103//14
f 104//14 103//14 96//14
f 96//14 97//14 104//14
f 99//14 105//14 98//14
f 105//15 99//15 106//15
f 107//15 106//15 99//15
f 99//15 100//15 107//15
f 108//15 107//15 100//15
f 100//15 101//15 108//15
f 109//15 108//15 101//15
f 101//15 102//15 109//15
f 110//15 109//15 102//15
f 102//15 103//15 110//15
f 111//15 110//15 103//15
f 103//15 104//15 111//15
f 106//15 112//15 105//15
f 112//16 106//16 113//16
f 114//16 113//16 106//16
f 106//16 107//16 114//16
f 115//16 114//16 107//16
f 107//16 108//16 115//16
f 116//16 115//16 108//16
f 108//16 109//16 116//16
f 117//16 116//16 109//16
f 109//16 110//16 117//16
f 118//16 117//16 110//16
f 110//16 111//16 118//16
f 113//16 119//16 112//16
f 119//17 113//17 120//17
f 121//17 120//17 113//17
f 113//17 114//17 121//17
f 122//17 121//17 114//17
f 114//17 115//17 122//17
f 123//17 122//17 115//17
f 115//17 116//17 123//17
f 124//17 123//17 116//17
f 116//17 117//17 124//17
f 125//17 124//17 117//17
f 117//17 118//17 125//17
f 120//17 126//17 119//17
f 21//18 77//18 84//18
f 21//18 127//18 1//18
f 21//18 70//18 77//18
f 21//18 128//18 127//18
f 21//18 105//18 112//18
f 21//18 63//18 70//18
f 35//18 42//18 49//18
f 56//18 21//18 28//18
f 21//18 126//18 128//18
f 112//18 119//18 21//18
f 21//18 56//18 63//18
f 28//18 35//18 56//18
f 119//18 126//18 21//18
f 21//18 91//18 98//18
f 49//18 56//18 35//18
f 98//18 105//18 21//18
f 1//18 14//18 21//18
f 84//18 91//18 21//18
f 125//19 13//19 129//19
f 20//19 83//19 76//19
f 20//19 118//19 111//19
f 125//19 12//19 13//19
f 20//19 90//19 83//19
f 20//19 125//19 118//19
f 125//19 20//19 12//19
f 55//19 34//19 27//19
f 34//19 55//19 48//19
f 76//19 69//19 20//19
f 20//19 104//19 97//19
f 129//19 130//19 125//19
f 48//19 41//19 34//19
f 69//19 62//19 20//19
f 111//19 104//19 20//19
f 62//19 55//19 20//19
f 27//19 20//19 55//19
f 97//19 90//19 20//19
f 126//20 120//20 131//20
f 132//20 131//20 120//20
f 120//20 121//20 132//20
f 133//20 132//20 121//20
f 121//20 122//20 133//20
f 134//20 133//20 122//20
f 122//20 123//20 134//20
f 135//20 134//20 123//20
f 123//20 124//20 135//20
f 130//20 135//20 124//20
f 124//20 125//20 130//20
f 131//20 128//20 126//20
f 128//21 131//21 136//21
f 137//21 136//21 131//21
f 131//21 132//21 137//21
f 138//21 137//21 132//21
f 132//21 133//21 138//21
f 139//21 138//21 133//21
f 133//21 134//21 139//21
f 140//21 139//21 134//21
f 134//21 135//21 140//21
f 129//21 140//21 135//21
f 135//21 130//21 129//21
f 136//21 127//21 128//21
f 127//22 136//22 2//22
f 5//22 2//22 136//22
f 136//22 137//22 5//22
f 7//22 5//22 137//22
f 137//22 138//22 7//22
f 9//22 7//22 138//22
f 138//22 139//22 9//22
f 11//22 9//22 139//22
f 139//22 140//22 11//22
f 13//22 11//22 140//22
f 140//22 129//22 13//22
f 2//22 1//22 127//22
