# Blender v2.79 (sub 7) OBJ File: 'TelComPole.blend'
# www.blender.org
mtllib TelComPole.mtl
o TelComPole_TelComPole.001
v -0.187500 5.500000 -0.029697
v -0.187500 4.500000 -0.029697
v -0.187500 4.500000 0.029697
v -0.187500 3.500000 0.029697
v -0.187500 3.500000 -0.029697
v -0.187500 2.500000 0.029697
v -0.187500 2.500000 -0.029697
v -0.187500 1.500000 0.029697
v -0.187500 1.500000 -0.029697
v -0.187500 0.500000 0.029697
v -0.187500 0.500000 -0.029697
v -0.187500 -0.500000 0.029697
v -0.187500 -0.500000 -0.029697
v -0.187500 5.500000 0.029697
v -0.169146 4.500000 0.086184
v -0.169146 3.500000 0.086184
v -0.169146 2.500000 0.086184
v -0.169146 1.500000 0.086184
v -0.169146 0.500000 0.086184
v -0.169146 -0.500000 0.086184
v -0.169146 5.500000 0.086184
v -0.134235 4.500000 0.134235
v -0.134235 3.500000 0.134235
v -0.134235 2.500000 0.134235
v -0.134235 1.500000 0.134235
v -0.134235 0.500000 0.134235
v -0.134235 -0.500000 0.134235
v -0.134235 5.500000 0.134235
v -0.086184 4.500000 0.169146
v -0.086184 3.500000 0.169146
v -0.086184 2.500000 0.169146
v -0.086184 1.500000 0.169146
v -0.086184 0.500000 0.169146
v -0.086184 -0.500000 0.169146
v -0.086184 5.500000 0.169146
v -0.029697 4.500000 0.187500
v -0.029697 3.500000 0.187500
v -0.029697 2.500000 0.187500
v -0.029697 1.500000 0.187500
v -0.029697 0.500000 0.187500
v -0.029697 -0.500000 0.187500
v -0.029697 5.500000 0.187500
v 0.029697 4.500000 0.187500
v 0.029697 3.500000 0.187500
v 0.029697 2.500000 0.187500
v 0.029697 1.500000 0.187500
v 0.029697 0.500000 0.187500
v 0.029697 -0.500000 0.187500
v 0.029697 5.500000 0.187500
v 0.086184 4.500000 0.169146
v 0.086184 3.500000 0.169146
v 0.086184 2.500000 0.169146
v 0.086184 1.500000 0.169146
v 0.086184 0.500000 0.169146
v 0.086184 -0.500000 0.169146
v 0.086184 5.500000 0.169146
v 0.134235 4.500000 0.134235
v 0.134235 3.500000 0.134235
v 0.134235 2.500000 0.134235
v 0.134235 1.500000 0.134235
v 0.134235 0.500000 0.134235
v 0.134235 -0.500000 0.134235
v 0.134235 5.500000 0.134235
v 0.169146 4.500000 0.086184
v 0.169146 3.500000 0.086184
v 0.169146 2.500000 0.086184
v 0.169146 1.500000 0.086184
v 0.169146 0.500000 0.086184
v 0.169146 -0.500000 0.086184
v 0.169146 5.500000 0.086184
v 0.187500 4.500000 0.029697
v 0.187500 3.500000 0.029697
v 0.187500 2.500000 0.029697
v 0.187500 1.500000 0.029697
v 0.187500 0.500000 0.029697
v 0.187500 -0.500000 0.029697
v 0.187500 5.500000 0.029697
v 0.187500 4.500000 -0.029697
v 0.187500 3.500000 -0.029697
v 0.187500 2.500000 -0.029697
v 0.187500 1.500000 -0.029697
v 0.187500 0.500000 -0.029697
v 0.187500 -0.500000 -0.029697
v 0.187500 5.500000 -0.029697
v 0.169146 4.500000 -0.086184
v 0.169146 3.500000 -0.086184
v 0.169146 2.500000 -0.086184
v 0.169146 1.500000 -0.086184
v 0.169146 0.500000 -0.086184
v 0.169146 -0.500000 -0.086184
v 0.169146 5.500000 -0.086184
v 0.134235 4.500000 -0.134235
v 0.134235 3.500000 -0.134235
v 0.134235 2.500000 -0.134235
v 0.134235 1.500000 -0.134235
v 0.134235 0.500000 -0.134235
v 0.134235 -0.500000 -0.134235
v 0.134235 5.500000 -0.134235
v 0.086184 4.500000 -0.169146
v 0.086184 3.500000 -0.169146
v 0.086184 2.500000 -0.169146
v 0.086184 1.500000 -0.169146
v 0.086184 0.500000 -0.169146
v 0.086184 -0.500000 -0.169146
v 0.086184 5.500000 -0.169146
v 0.029697 4.500000 -0.187500
v 0.029697 3.500000 -0.187500
v 0.029697 2.500000 -0.187500
v 0.029697 1.500000 -0.187500
v 0.029697 0.500000 -0.187500
v 0.029697 -0.500000 -0.187500
v 0.029697 5.500000 -0.187500
v -0.029697 4.500000 -0.187500
v -0.029697 3.500000 -0.187500
v -0.029697 2.500000 -0.187500
v -0.029697 1.500000 -0.187500
v -0.029697 0.500000 -0.187500
v -0.029697 -0.500000 -0.187500
v -0.029697 5.500000 -0.187500
v -0.086184 4.500000 -0.169146
v -0.086184 3.500000 -0.169146
v -0.086184 2.500000 -0.169146
v -0.086184 1.500000 -0.169146
v -0.086184 0.500000 -0.169146
v -0.086184 -0.500000 -0.169146
v -0.086184 5.500000 -0.169146
v -0.169146 5.500000 -0.086184
v -0.134235 5.500000 -0.134235
v -0.169146 -0.500000 -0.086184
v -0.134235 -0.500000 -0.134235
v -0.134235 4.500000 -0.134235
v -0.134235 3.500000 -0.134235
v -0.134235 2.500000 -0.134235
v -0.134235 1.500000 -0.134235
v -0.134235 0.500000 -0.134235
v -0.169146 4.500000 -0.086184
v -0.169146 3.500000 -0.086184
v -0.169146 2.500000 -0.086184
v -0.169146 1.500000 -0.086184
v -0.169146 0.500000 -0.086184
vt 0.500000 0.500000
vn -1.0000 0.0000 0.0000
vn -0.9511 0.0000 0.3090
vn -0.8090 0.0000 0.5878
vn -0.5878 0.0000 0.8090
vn -0.3090 0.0000 0.9511
vn 0.0000 0.0000 1.0000
vn 0.3090 0.0000 0.9511
vn 0.5878 0.0000 0.8090
vn 0.8090 0.0000 0.5878
vn 0.9511 0.0000 0.3090
vn 1.0000 0.0000 0.0000
vn 0.9511 0.0000 -0.3090
vn 0.8090 0.0000 -0.5878
vn 0.5878 0.0000 -0.8090
vn 0.3090 0.0000 -0.9511
vn 0.0000 0.0000 -1.0000
vn -0.3090 0.0000 -0.9511
vn 0.0000 1.0000 0.0000
vn 0.0000 -1.0000 0.0000
vn -0.5878 0.0000 -0.8090
vn -0.8090 0.0000 -0.5878
vn -0.9511 0.0000 -0.3090
usemtl None
s off
f 1/1/1 2/1/1 3/1/1
f 4/1/1 3/1/1 2/1/1
f 2/1/1 5/1/1 4/1/1
f 6/1/1 4/1/1 5/1/1
f 5/1/1 7/1/1 6/1/1
f 8/1/1 6/1/1 7/1/1
f 7/1/1 9/1/1 8/1/1
f 10/1/1 8/1/1 9/1/1
f 9/1/1 11/1/1 10/1/1
f 12/1/1 10/1/1 11/1/1
f 11/1/1 13/1/1 12/1/1
f 3/1/1 14/1/1 1/1/1
f 14/1/2 3/1/2 15/1/2
f 16/1/2 15/1/2 3/1/2
f 3/1/2 4/1/2 16/1/2
f 17/1/2 16/1/2 4/1/2
f 4/1/2 6/1/2 17/1/2
f 18/1/2 17/1/2 6/1/2
f 6/1/2 8/1/2 18/1/2
f 19/1/2 18/1/2 8/1/2
f 8/1/2 10/1/2 19/1/2
f 20/1/2 19/1/2 10/1/2
f 10/1/2 12/1/2 20/1/2
f 15/1/2 21/1/2 14/1/2
f 21/1/3 15/1/3 22/1/3
f 23/1/3 22/1/3 15/1/3
f 15/1/3 16/1/3 23/1/3
f 24/1/3 23/1/3 16/1/3
f 16/1/3 17/1/3 24/1/3
f 25/1/3 24/1/3 17/1/3
f 17/1/3 18/1/3 25/1/3
f 26/1/3 25/1/3 18/1/3
f 18/1/3 19/1/3 26/1/3
f 27/1/3 26/1/3 19/1/3
f 19/1/3 20/1/3 27/1/3
f 22/1/3 28/1/3 21/1/3
f 28/1/4 22/1/4 29/1/4
f 30/1/4 29/1/4 22/1/4
f 22/1/4 23/1/4 30/1/4
f 31/1/4 30/1/4 23/1/4
f 23/1/4 24/1/4 31/1/4
f 32/1/4 31/1/4 24/1/4
f 24/1/4 25/1/4 32/1/4
f 33/1/4 32/1/4 25/1/4
f 25/1/4 26/1/4 33/1/4
f 34/1/4 33/1/4 26/1/4
f 26/1/4 27/1/4 34/1/4
f 29/1/4 35/1/4 28/1/4
f 35/1/5 29/1/5 36/1/5
f 37/1/5 36/1/5 29/1/5
f 29/1/5 30/1/5 37/1/5
f 38/1/5 37/1/5 30/1/5
f 30/1/5 31/1/5 38/1/5
f 39/1/5 38/1/5 31/1/5
f 31/1/5 32/1/5 39/1/5
f 40/1/5 39/1/5 32/1/5
f 32/1/5 33/1/5 40/1/5
f 41/1/5 40/1/5 33/1/5
f 33/1/5 34/1/5 41/1/5
f 36/1/5 42/1/5 35/1/5
f 42/1/6 36/1/6 43/1/6
f 44/1/6 43/1/6 36/1/6
f 36/1/6 37/1/6 44/1/6
f 45/1/6 44/1/6 37/1/6
f 37/1/6 38/1/6 45/1/6
f 46/1/6 45/1/6 38/1/6
f 38/1/6 39/1/6 46/1/6
f 47/1/6 46/1/6 39/1/6
f 39/1/6 40/1/6 47/1/6
f 48/1/6 47/1/6 40/1/6
f 40/1/6 41/1/6 48/1/6
f 43/1/6 49/1/6 42/1/6
f 49/1/7 43/1/7 50/1/7
f 51/1/7 50/1/7 43/1/7
f 43/1/7 44/1/7 51/1/7
f 52/1/7 51/1/7 44/1/7
f 44/1/7 45/1/7 52/1/7
f 53/1/7 52/1/7 45/1/7
f 45/1/7 46/1/7 53/1/7
f 54/1/7 53/1/7 46/1/7
f 46/1/7 47/1/7 54/1/7
f 55/1/7 54/1/7 47/1/7
f 47/1/7 48/1/7 55/1/7
f 50/1/7 56/1/7 49/1/7
f 56/1/8 50/1/8 57/1/8
f 58/1/8 57/1/8 50/1/8
f 50/1/8 51/1/8 58/1/8
f 59/1/8 58/1/8 51/1/8
f 51/1/8 52/1/8 59/1/8
f 60/1/8 59/1/8 52/1/8
f 52/1/8 53/1/8 60/1/8
f 61/1/8 60/1/8 53/1/8
f 53/1/8 54/1/8 61/1/8
f 62/1/8 61/1/8 54/1/8
f 54/1/8 55/1/8 62/1/8
f 57/1/8 63/1/8 56/1/8
f 63/1/9 57/1/9 64/1/9
f 65/1/9 64/1/9 57/1/9
f 57/1/9 58/1/9 65/1/9
f 66/1/9 65/1/9 58/1/9
f 58/1/9 59/1/9 66/1/9
f 67/1/9 66/1/9 59/1/9
f 59/1/9 60/1/9 67/1/9
f 68/1/9 67/1/9 60/1/9
f 60/1/9 61/1/9 68/1/9
f 69/1/9 68/1/9 61/1/9
f 61/1/9 62/1/9 69/1/9
f 64/1/9 70/1/9 63/1/9
f 70/1/10 64/1/10 71/1/10
f 72/1/10 71/1/10 64/1/10
f 64/1/10 65/1/10 72/1/10
f 73/1/10 72/1/10 65/1/10
f 65/1/10 66/1/10 73/1/10
f 74/1/10 73/1/10 66/1/10
f 66/1/10 67/1/10 74/1/10
f 75/1/10 74/1/10 67/1/10
f 67/1/10 68/1/10 75/1/10
f 76/1/10 75/1/10 68/1/10
f 68/1/10 69/1/10 76/1/10
f 71/1/10 77/1/10 70/1/10
f 77/1/11 71/1/11 78/1/11
f 79/1/11 78/1/11 71/1/11
f 71/1/11 72/1/11 79/1/11
f 80/1/11 79/1/11 72/1/11
f 72/1/11 73/1/11 80/1/11
f 81/1/11 80/1/11 73/1/11
f 73/1/11 74/1/11 81/1/11
f 82/1/11 81/1/11 74/1/11
f 74/1/11 75/1/11 82/1/11
f 83/1/11 82/1/11 75/1/11
f 75/1/11 76/1/11 83/1/11
f 78/1/11 84/1/11 77/1/11
f 84/1/12 78/1/12 85/1/12
f 86/1/12 85/1/12 78/1/12
f 78/1/12 79/1/12 86/1/12
f 87/1/12 86/1/12 79/1/12
f 79/1/12 80/1/12 87/1/12
f 88/1/12 87/1/12 80/1/12
f 80/1/12 81/1/12 88/1/12
f 89/1/12 88/1/12 81/1/12
f 81/1/12 82/1/12 89/1/12
f 90/1/12 89/1/12 82/1/12
f 82/1/12 83/1/12 90/1/12
f 85/1/12 91/1/12 84/1/12
f 91/1/13 85/1/13 92/1/13
f 93/1/13 92/1/13 85/1/13
f 85/1/13 86/1/13 93/1/13
f 94/1/13 93/1/13 86/1/13
f 86/1/13 87/1/13 94/1/13
f 95/1/13 94/1/13 87/1/13
f 87/1/13 88/1/13 95/1/13
f 96/1/13 95/1/13 88/1/13
f 88/1/13 89/1/13 96/1/13
f 97/1/13 96/1/13 89/1/13
f 89/1/13 90/1/13 97/1/13
f 92/1/13 98/1/13 91/1/13
f 98/1/14 92/1/14 99/1/14
f 100/1/14 99/1/14 92/1/14
f 92/1/14 93/1/14 100/1/14
f 101/1/14 100/1/14 93/1/14
f 93/1/14 94/1/14 101/1/14
f 102/1/14 101/1/14 94/1/14
f 94/1/14 95/1/14 102/1/14
f 103/1/14 102/1/14 95/1/14
f 95/1/14 96/1/14 103/1/14
f 104/1/14 103/1/14 96/1/14
f 96/1/14 97/1/14 104/1/14
f 99/1/14 105/1/14 98/1/14
f 105/1/15 99/1/15 106/1/15
f 107/1/15 106/1/15 99/1/15
f 99/1/15 100/1/15 107/1/15
f 108/1/15 107/1/15 100/1/15
f 100/1/15 101/1/15 108/1/15
f 109/1/15 108/1/15 101/1/15
f 101/1/15 102/1/15 109/1/15
f 110/1/15 109/1/15 102/1/15
f 102/1/15 103/1/15 110/1/15
f 111/1/15 110/1/15 103/1/15
f 103/1/15 104/1/15 111/1/15
f 106/1/15 112/1/15 105/1/15
f 112/1/16 106/1/16 113/1/16
f 114/1/16 113/1/16 106/1/16
f 106/1/16 107/1/16 114/1/16
f 115/1/16 114/1/16 107/1/16
f 107/1/16 108/1/16 115/1/16
f 116/1/16 115/1/16 108/1/16
f 108/1/16 109/1/16 116/1/16
f 117/1/16 116/1/16 109/1/16
f 109/1/16 110/1/16 117/1/16
f 118/1/16 117/1/16 110/1/16
f 110/1/16 111/1/16 118/1/16
f 113/1/16 119/1/16 112/1/16
f 119/1/17 113/1/17 120/1/17
f 121/1/17 120/1/17 113/1/17
f 113/1/17 114/1/17 121/1/17
f 122/1/17 121/1/17 114/1/17
f 114/1/17 115/1/17 122/1/17
f 123/1/17 122/1/17 115/1/17
f 115/1/17 116/1/17 123/1/17
f 124/1/17 123/1/17 116/1/17
f 116/1/17 117/1/17 124/1/17
f 125/1/17 124/1/17 117/1/17
f 117/1/17 118/1/17 125/1/17
f 120/1/17 126/1/17 119/1/17
f 21/1/18 77/1/18 84/1/18
f 21/1/18 127/1/18 1/1/18
f 21/1/18 70/1/18 77/1/18
f 21/1/18 128/1/18 127/1/18
f 21/1/18 105/1/18 112/1/18
f 21/1/18 63/1/18 70/1/18
f 35/1/18 42/1/18 49/1/18
f 56/1/18 21/1/18 28/1/18
f 21/1/18 126/1/18 128/1/18
f 112/1/18 119/1/18 21/1/18
f 21/1/18 56/1/18 63/1/18
f 28/1/18 35/1/18 56/1/18
f 119/1/18 126/1/18 21/1/18
f 21/1/18 91/1/18 98/1/18
f 49/1/18 56/1/18 35/1/18
f 98/1/18 105/1/18 21/1/18
f 1/1/18 14/1/18 21/1/18
f 84/1/18 91/1/18 21/1/18
f 125/1/19 13/1/19 129/1/19
f 20/1/19 83/1/19 76/1/19
f 20/1/19 118/1/19 111/1/19
f 125/1/19 12/1/19 13/1/19
f 20/1/19 90/1/19 83/1/19
f 20/1/19 125/1/19 118/1/19
f 125/1/19 20/1/19 12/1/19
f 55/1/19 34/1/19 27/1/19
f 34/1/19 55/1/19 48/1/19
f 76/1/19 69/1/19 20/1/19
f 20/1/19 104/1/19 97/1/19
f 129/1/19 130/1/19 125/1/19
f 48/1/19 41/1/19 34/1/19
f 69/1/19 62/1/19 20/1/19
f 111/1/19 104/1/19 20/1/19
f 62/1/19 55/1/19 20/1/19
f 27/1/19 20/1/19 55/1/19
f 97/1/19 90/1/19 20/1/19
f 126/1/20 120/1/20 131/1/20
f 132/1/20 131/1/20 120/1/20
f 120/1/20 121/1/20 132/1/20
f 133/1/20 132/1/20 121/1/20
f 121/1/20 122/1/20 133/1/20
f 134/1/20 133/1/20 122/1/20
f 122/1/20 123/1/20 134/1/20
f 135/1/20 134/1/20 123/1/20
f 123/1/20 124/1/20 135/1/20
f 130/1/20 135/1/20 124/1/20
f 124/1/20 125/1/20 130/1/20
f 131/1/20 128/1/20 126/1/20
f 128/1/21 131/1/21 136/1/21
f 137/1/21 136/1/21 131/1/21
f 131/1/21 132/1/21 137/1/21
f 138/1/21 137/1/21 132/1/21
f 132/1/21 133/1/21 138/1/21
f 139/1/21 138/1/21 133/1/21
f 133/1/21 134/1/21 139/1/21
f 140/1/21 139/1/21 134/1/21
f 134/1/21 135/1/21 140/1/21
f 129/1/21 140/1/21 135/1/21
f 135/1/21 130/1/21 129/1/21
f 136/1/21 127/1/21 128/1/21
f 127/1/22 136/1/22 2/1/22
f 5/1/22 2/1/22 136/1/22
f 136/1/22 137/1/22 5/1/22
f 7/1/22 5/1/22 137/1/22
f 137/1/22 138/1/22 7/1/22
f 9/1/22 7/1/22 138/1/22
f 138/1/22 139/1/22 9/1/22
f 11/1/22 9/1/22 139/1/22
f 139/1/22 140/1/22 11/1/22
f 13/1/22 11/1/22 140/1/22
f 140/1/22 129/1/22 13/1/22
f 2/1/22 1/1/22 127/1/22
