# Blender v2.91.0 OBJ File: 'thermal_heat_exchanger.blend'
# www.blender.org
mtllib thermal_heat_exchanger.mtl
o Plane_Plane.001
v 0.750000 0.250000 -0.500000
v 1.000000 0.250000 -0.500000
v 0.750000 0.875000 -0.500000
v 1.000000 0.875000 -0.500000
v 1.000000 0.125000 -0.125000
v 1.000000 0.875000 -0.125000
v 1.000000 0.125000 -0.000000
v 1.000000 0.875000 -0.000000
v 0.875000 0.125000 -0.125000
v 0.875000 0.875000 -0.125000
v 0.875000 0.125000 -0.000000
v 0.875000 0.875000 -0.000000
v 0.750000 0.125000 -0.250000
v 0.750000 0.250000 -0.250000
v 0.750000 0.125000 -0.750000
v 0.750000 0.250000 -0.750000
v 1.000000 0.125000 -0.250000
v 1.000000 0.250000 -0.250000
v 1.000000 0.125000 -0.750000
v 1.000000 0.250000 -0.750000
v 0.500000 0.125000 -0.875000
v 0.500000 0.875000 -0.875000
v 0.765165 0.125000 -0.765165
v 0.765165 0.875000 -0.765165
v 0.875000 0.125000 -0.500000
v 0.875000 0.875000 -0.500000
v 0.765165 0.125000 -0.234835
v 0.765165 0.875000 -0.234835
v 0.500000 0.125000 -0.125000
v 0.500000 0.875000 -0.125000
v 0.234835 0.125000 -0.234835
v 0.234835 0.875000 -0.234835
v 0.125000 0.125000 -0.500000
v 0.125000 0.875000 -0.500000
v 0.234835 0.125000 -0.765165
v 0.234835 0.875000 -0.765165
v 0.000000 0.875000 0.000000
v 0.000000 1.000000 0.000000
v 0.000000 0.875000 -1.000000
v 0.000000 1.000000 -1.000000
v 1.000000 0.875000 0.000000
v 1.000000 1.000000 0.000000
v 1.000000 0.875000 -1.000000
v 1.000000 1.000000 -1.000000
v 0.000000 0.000000 0.000000
v 0.000000 0.125000 0.000000
v 0.000000 -0.000000 -1.000000
v 0.000000 0.125000 -1.000000
v 1.000000 0.000000 -0.000000
v 1.000000 0.125000 -0.000000
v 1.000000 -0.000000 -1.000000
v 1.000000 0.125000 -1.000000
v 0.750000 0.250000 -0.562500
v 1.000000 0.250000 -0.562500
v 0.750000 0.875000 -0.562500
v 1.000000 0.875000 -0.562500
v 0.750000 0.250000 -0.625000
v 1.000000 0.250000 -0.625000
v 0.750000 0.875000 -0.625000
v 1.000000 0.875000 -0.625000
v 0.750000 0.250000 -0.375000
v 1.000000 0.250000 -0.375000
v 0.750000 0.875000 -0.375000
v 1.000000 0.875000 -0.375000
v 0.750000 0.250000 -0.437500
v 1.000000 0.250000 -0.437500
v 0.750000 0.875000 -0.437500
v 1.000000 0.875000 -0.437500
v 1.000000 0.125000 -0.875000
v 1.000000 0.875000 -0.875000
v 0.875000 0.125000 -0.875000
v 0.875000 0.875000 -0.875000
v 1.000000 0.125000 -1.000000
v 1.000000 0.875000 -1.000000
v 0.875000 0.125000 -1.000000
v 0.875000 0.875000 -1.000000
v 0.125000 0.125000 -0.000000
v 0.125000 0.875000 -0.000000
v -0.000000 0.125000 -0.000000
v 0.000000 0.875000 -0.000000
v 0.125000 0.125000 -0.125000
v 0.125000 0.875000 -0.125000
v -0.000000 0.125000 -0.125000
v -0.000000 0.875000 -0.125000
v 0.125000 0.125000 -1.000000
v 0.125000 0.875000 -1.000000
v 0.125000 0.125000 -0.875000
v 0.125000 0.875000 -0.875000
v 0.000000 0.125000 -1.000000
v 0.000000 0.875000 -1.000000
v 0.000000 0.125000 -0.875000
v 0.000000 0.875000 -0.875000
v 1.000000 0.250000 -0.500010
v 0.750000 0.250000 -0.500010
v 1.000000 0.875000 -0.500010
v 0.750000 0.875000 -0.500010
v 1.000000 0.250000 -0.437510
v 0.750000 0.250000 -0.437510
v 1.000000 0.875000 -0.437510
v 0.750000 0.875000 -0.437510
v 1.000000 0.250000 -0.375010
v 0.750000 0.250000 -0.375010
v 1.000000 0.875000 -0.375010
v 0.750000 0.875000 -0.375010
v 1.000000 0.250000 -0.625010
v 0.750000 0.250000 -0.625010
v 1.000000 0.875000 -0.625010
v 0.750000 0.875000 -0.625010
v 1.000000 0.250000 -0.562510
v 0.750000 0.250000 -0.562510
v 1.000000 0.875000 -0.562510
v 0.750000 0.875000 -0.562510
vt 0.187500 0.125000
vt 0.062500 0.437500
vt 0.062500 0.125000
vt 0.062500 0.437500
vt 0.000000 0.062500
vt 0.062500 0.062500
vt 0.000000 0.437500
vt 0.062500 0.062500
vt 0.062500 0.437500
vt 0.000000 0.062500
vt 0.000000 0.437500
vt 0.875000 0.437500
vt 0.750000 0.375000
vt 0.875000 0.375000
vt 0.750000 0.500000
vt 0.500000 0.437500
vt 0.750000 0.437500
vt 0.875000 0.437500
vt 0.750000 0.375000
vt 0.875000 0.375000
vt 0.500000 0.312500
vt 0.750000 0.437500
vt 0.500000 0.437500
vt 0.187500 0.062500
vt 0.312500 0.437500
vt 0.187500 0.437500
vt 0.187500 0.062500
vt 0.312500 0.437500
vt 0.187500 0.437500
vt 0.187500 0.437500
vt 0.312500 0.062500
vt 0.312500 0.437500
vt 0.187500 0.062500
vt 0.312500 0.437500
vt 0.187500 0.437500
vt 0.187500 0.062500
vt 0.312500 0.437500
vt 0.187500 0.437500
vt 0.187500 0.062500
vt 0.312500 0.437500
vt 0.187500 0.437500
vt 0.187500 0.437500
vt 0.312500 0.062500
vt 0.312500 0.437500
vt 0.187500 0.062500
vt 0.312500 0.437500
vt 0.187500 0.437500
vt 0.500000 0.500000
vt 0.000000 0.437500
vt 0.500000 0.437500
vt 0.500000 0.500000
vt 0.000000 0.437500
vt 0.500000 0.437500
vt 0.500000 0.500000
vt 0.000000 0.437500
vt 0.500000 0.437500
vt 0.500000 0.500000
vt -0.000000 0.437500
vt 0.500000 0.437500
vt 0.000000 0.500000
vt 0.500000 1.000000
vt 0.000100 0.999900
vt 0.500000 1.000000
vt 1.000000 0.500000
vt 0.999900 0.999900
vt 0.500000 0.500000
vt 0.000000 0.437500
vt 0.500000 0.437500
vt 0.500000 0.500000
vt -0.000000 0.437500
vt 0.500000 0.437500
vt 0.500000 0.062500
vt 0.000000 0.000000
vt 0.500000 0.000000
vt 0.500000 0.500000
vt 0.000000 0.437500
vt 0.500000 0.437500
vt 1.000000 0.500000
vt 0.500000 1.000000
vt 0.500000 0.500000
vt 0.000100 0.999900
vt 0.500000 1.000000
vt 0.187500 0.125000
vt 0.062500 0.437500
vt 0.062500 0.125000
vt 0.187500 0.125000
vt 0.062500 0.437500
vt 0.062500 0.125000
vt 0.187500 0.125000
vt 0.062500 0.437500
vt 0.062500 0.125000
vt 0.187500 0.125000
vt 0.062500 0.437500
vt 0.062500 0.125000
vt 0.062500 0.437500
vt 0.000000 0.062500
vt 0.062500 0.062500
vt 0.000000 0.437500
vt 0.062500 0.062500
vt 0.062500 0.437500
vt 0.000000 0.062500
vt 0.000000 0.437500
vt 0.062500 0.437500
vt 0.000000 0.062500
vt 0.062500 0.062500
vt 0.000000 0.437500
vt 0.062500 0.062500
vt 0.062500 0.437500
vt 0.000000 0.062500
vt 0.000000 0.437500
vt 0.062500 0.437500
vt 0.000000 0.062500
vt 0.062500 0.062500
vt 0.000000 0.437500
vt 0.062500 0.062500
vt 0.062500 0.437500
vt 0.000000 0.062500
vt 0.000000 0.437500
vt 0.187500 0.125000
vt 0.062500 0.437500
vt 0.062500 0.125000
vt 0.187500 0.125000
vt 0.062500 0.437500
vt 0.062500 0.125000
vt 0.187500 0.125000
vt 0.062500 0.437500
vt 0.062500 0.125000
vt 0.187500 0.125000
vt 0.062500 0.437500
vt 0.062500 0.125000
vt 0.187500 0.125000
vt 0.062500 0.437500
vt 0.062500 0.125000
vt 0.187500 0.437500
vt 0.750000 0.437500
vt 0.500000 0.500000
vt 0.750000 0.437500
vt 0.750000 0.312500
vt 0.312500 0.062500
vt 0.312500 0.062500
vt 0.187500 0.062500
vt 0.312500 0.062500
vt 0.312500 0.062500
vt 0.312500 0.062500
vt 0.187500 0.062500
vt 0.312500 0.062500
vt -0.000000 0.500000
vt 0.000000 0.500000
vt -0.000000 0.500000
vt 0.000000 0.500000
vt 0.500000 0.500000
vt -0.000000 0.500000
vt 0.000000 0.500000
vt 0.000000 0.062500
vt 0.000000 0.500000
vt 0.999900 0.999900
vt 0.187500 0.437500
vt 0.187500 0.437500
vt 0.187500 0.437500
vt 0.187500 0.437500
vt 0.187500 0.437500
vt 0.187500 0.437500
vt 0.187500 0.437500
vt 0.187500 0.437500
vt 0.187500 0.437500
vn 0.0000 0.0000 1.0000
vn 1.0000 0.0000 0.0000
vn -1.0000 0.0000 0.0000
vn 0.0000 -0.0000 -1.0000
vn 0.0000 1.0000 -0.0000
vn 0.3827 0.0000 -0.9239
vn 0.9239 0.0000 -0.3827
vn 0.9239 0.0000 0.3827
vn 0.3827 -0.0000 0.9239
vn -0.3827 -0.0000 0.9239
vn -0.9239 0.0000 0.3827
vn -0.9239 0.0000 -0.3827
vn -0.3827 0.0000 -0.9239
vn 0.0000 -1.0000 0.0000
usemtl thermal_heat_exchanger
s off
f 2/1/1 3/2/1 1/3/1
f 6/4/2 7/5/2 5/6/2
f 8/7/1 11/8/1 7/5/1
f 12/9/3 9/10/3 11/8/3
f 10/11/4 5/6/4 9/10/4
f 16/12/4 19/13/4 15/14/4
f 20/15/2 17/16/2 19/17/2
f 18/18/1 13/19/1 17/20/1
f 16/21/5 18/22/5 20/23/5
f 22/24/6 23/25/6 21/26/6
f 24/27/7 25/28/7 23/29/7
f 25/30/8 28/31/8 27/32/8
f 28/33/9 29/34/9 27/35/9
f 30/36/10 31/37/10 29/38/10
f 32/39/11 33/40/11 31/41/11
f 33/42/12 36/43/12 35/44/12
f 36/45/13 21/46/13 35/47/13
f 38/48/3 39/49/3 37/50/3
f 40/51/4 43/52/4 39/53/4
f 44/54/2 41/55/2 43/56/2
f 42/57/1 37/58/1 41/59/1
f 39/60/14 41/61/14 37/62/14
f 40/63/5 42/64/5 44/65/5
f 46/66/3 47/67/3 45/68/3
f 48/69/4 51/70/4 47/71/4
f 52/72/2 49/73/2 51/74/2
f 50/75/1 45/76/1 49/77/1
f 51/78/14 45/79/14 47/80/14
f 48/81/5 50/75/5 52/82/5
f 54/83/1 55/84/1 53/85/1
f 58/86/1 59/87/1 57/88/1
f 62/89/1 63/90/1 61/91/1
f 66/92/1 67/93/1 65/94/1
f 70/95/1 71/96/1 69/97/1
f 72/98/3 75/99/3 71/96/3
f 76/100/4 73/101/4 75/99/4
f 74/102/2 69/97/2 73/101/2
f 78/103/1 79/104/1 77/105/1
f 80/106/3 83/107/3 79/104/3
f 84/108/4 81/109/4 83/107/4
f 82/110/2 77/105/2 81/109/2
f 86/111/2 87/112/2 85/113/2
f 88/114/1 91/115/1 87/112/1
f 92/116/3 89/117/3 91/115/3
f 90/118/4 85/113/4 89/117/4
f 94/119/4 95/120/4 93/121/4
f 98/122/4 99/123/4 97/124/4
f 102/125/4 103/126/4 101/127/4
f 106/128/4 107/129/4 105/130/4
f 110/131/4 111/132/4 109/133/4
f 2/1/1 4/134/1 3/2/1
f 6/4/2 8/7/2 7/5/2
f 8/7/1 12/9/1 11/8/1
f 12/9/3 10/11/3 9/10/3
f 10/11/4 6/4/4 5/6/4
f 16/12/4 20/135/4 19/13/4
f 20/15/2 18/136/2 17/16/2
f 18/18/1 14/137/1 13/19/1
f 16/21/5 14/138/5 18/22/5
f 22/24/6 24/139/6 23/25/6
f 24/27/7 26/140/7 25/28/7
f 25/30/8 26/141/8 28/31/8
f 28/33/9 30/142/9 29/34/9
f 30/36/10 32/143/10 31/37/10
f 32/39/11 34/144/11 33/40/11
f 33/42/12 34/145/12 36/43/12
f 36/45/13 22/146/13 21/46/13
f 38/48/3 40/147/3 39/49/3
f 40/51/4 44/148/4 43/52/4
f 44/54/2 42/149/2 41/55/2
f 42/57/1 38/150/1 37/58/1
f 39/60/14 43/151/14 41/61/14
f 40/63/5 38/48/5 42/64/5
f 46/66/3 48/152/3 47/67/3
f 48/69/4 52/153/4 51/70/4
f 52/72/2 50/154/2 49/73/2
f 50/75/1 46/155/1 45/76/1
f 51/78/14 49/156/14 45/79/14
f 48/81/5 46/155/5 50/75/5
f 54/83/1 56/157/1 55/84/1
f 58/86/1 60/158/1 59/87/1
f 62/89/1 64/159/1 63/90/1
f 66/92/1 68/160/1 67/93/1
f 70/95/1 72/98/1 71/96/1
f 72/98/3 76/100/3 75/99/3
f 76/100/4 74/102/4 73/101/4
f 74/102/2 70/95/2 69/97/2
f 78/103/1 80/106/1 79/104/1
f 80/106/3 84/108/3 83/107/3
f 84/108/4 82/110/4 81/109/4
f 82/110/2 78/103/2 77/105/2
f 86/111/2 88/114/2 87/112/2
f 88/114/1 92/116/1 91/115/1
f 92/116/3 90/118/3 89/117/3
f 90/118/4 86/111/4 85/113/4
f 94/119/4 96/161/4 95/120/4
f 98/122/4 100/162/4 99/123/4
f 102/125/4 104/163/4 103/126/4
f 106/128/4 108/164/4 107/129/4
f 110/131/4 112/165/4 111/132/4
